<mxfile host="app.diagrams.net" modified="2023-05-26T14:08:53.987Z" agent="Mozilla/5.0 (Windows NT 10.0; Win64; x64) AppleWebKit/537.36 (KHTML, like Gecko) Chrome/113.0.0.0 Safari/537.36" etag="efyHQerxZ3bQ8MzJ5iVy" version="21.3.4" type="device">
  <diagram id="C5RBs43oDa-KdzZeNtuy" name="Page-1">
    <mxGraphModel dx="2514" dy="2068" grid="1" gridSize="10" guides="1" tooltips="1" connect="1" arrows="1" fold="1" page="1" pageScale="1" pageWidth="827" pageHeight="1169" math="0" shadow="0">
      <root>
        <mxCell id="WIyWlLk6GJQsqaUBKTNV-0" />
        <mxCell id="WIyWlLk6GJQsqaUBKTNV-1" parent="WIyWlLk6GJQsqaUBKTNV-0" />
        <mxCell id="io9zjwwCW2kKmOPxTwVO-2" value="salonController" style="swimlane;whiteSpace=wrap;html=1;" parent="WIyWlLk6GJQsqaUBKTNV-1" vertex="1">
          <mxGeometry x="40" y="340" width="200" height="340" as="geometry" />
        </mxCell>
        <mxCell id="io9zjwwCW2kKmOPxTwVO-6" value="Creer salon" style="rounded=1;whiteSpace=wrap;html=1;" parent="io9zjwwCW2kKmOPxTwVO-2" vertex="1">
          <mxGeometry x="30" y="110" width="100" height="30" as="geometry" />
        </mxCell>
        <mxCell id="io9zjwwCW2kKmOPxTwVO-7" value="S&#39;inscrire" style="rounded=1;whiteSpace=wrap;html=1;" parent="io9zjwwCW2kKmOPxTwVO-2" vertex="1">
          <mxGeometry x="20" y="286" width="100" height="30" as="geometry" />
        </mxCell>
        <mxCell id="7HJ0iA8Tx3J7Fw02GYnK-1" value="chercher tous les salons" style="rounded=1;whiteSpace=wrap;html=1;" vertex="1" parent="io9zjwwCW2kKmOPxTwVO-2">
          <mxGeometry x="10" y="40" width="160" height="40" as="geometry" />
        </mxCell>
        <mxCell id="io9zjwwCW2kKmOPxTwVO-8" value="users:&lt;br&gt;&lt;br&gt;Long id&lt;br&gt;&lt;br&gt;String username" style="shape=internalStorage;whiteSpace=wrap;html=1;backgroundOutline=1;align=center;verticalAlign=top;" parent="WIyWlLk6GJQsqaUBKTNV-1" vertex="1">
          <mxGeometry x="818" y="65" width="172" height="90" as="geometry" />
        </mxCell>
        <mxCell id="io9zjwwCW2kKmOPxTwVO-9" value="UserController" style="swimlane;whiteSpace=wrap;html=1;" parent="WIyWlLk6GJQsqaUBKTNV-1" vertex="1">
          <mxGeometry x="70" y="55" width="170" height="135" as="geometry" />
        </mxCell>
        <mxCell id="io9zjwwCW2kKmOPxTwVO-10" value="register" style="rounded=1;whiteSpace=wrap;html=1;" parent="io9zjwwCW2kKmOPxTwVO-9" vertex="1">
          <mxGeometry x="20" y="40" width="100" height="30" as="geometry" />
        </mxCell>
        <mxCell id="io9zjwwCW2kKmOPxTwVO-11" value="login" style="rounded=1;whiteSpace=wrap;html=1;" parent="io9zjwwCW2kKmOPxTwVO-9" vertex="1">
          <mxGeometry x="20" y="90" width="100" height="30" as="geometry" />
        </mxCell>
        <mxCell id="io9zjwwCW2kKmOPxTwVO-12" value="UserService" style="swimlane;whiteSpace=wrap;html=1;" parent="WIyWlLk6GJQsqaUBKTNV-1" vertex="1">
          <mxGeometry x="501" y="40" width="197" height="200" as="geometry" />
        </mxCell>
        <mxCell id="io9zjwwCW2kKmOPxTwVO-13" value="CreateUser" style="rounded=1;whiteSpace=wrap;html=1;" parent="io9zjwwCW2kKmOPxTwVO-12" vertex="1">
          <mxGeometry x="30" y="60" width="107" height="20" as="geometry" />
        </mxCell>
        <mxCell id="io9zjwwCW2kKmOPxTwVO-14" value="logUser" style="rounded=1;whiteSpace=wrap;html=1;" parent="io9zjwwCW2kKmOPxTwVO-12" vertex="1">
          <mxGeometry x="40" y="110" width="97" height="20" as="geometry" />
        </mxCell>
        <mxCell id="io9zjwwCW2kKmOPxTwVO-31" style="edgeStyle=orthogonalEdgeStyle;rounded=0;orthogonalLoop=1;jettySize=auto;html=1;entryX=0;entryY=0.5;entryDx=0;entryDy=0;" parent="WIyWlLk6GJQsqaUBKTNV-1" source="io9zjwwCW2kKmOPxTwVO-18" target="io9zjwwCW2kKmOPxTwVO-10" edge="1">
          <mxGeometry relative="1" as="geometry" />
        </mxCell>
        <mxCell id="io9zjwwCW2kKmOPxTwVO-32" style="edgeStyle=orthogonalEdgeStyle;rounded=0;orthogonalLoop=1;jettySize=auto;html=1;entryX=0;entryY=0.5;entryDx=0;entryDy=0;" parent="WIyWlLk6GJQsqaUBKTNV-1" source="io9zjwwCW2kKmOPxTwVO-18" target="io9zjwwCW2kKmOPxTwVO-11" edge="1">
          <mxGeometry relative="1" as="geometry" />
        </mxCell>
        <mxCell id="io9zjwwCW2kKmOPxTwVO-18" value="Post: UserDto" style="swimlane;fontStyle=0;childLayout=stackLayout;horizontal=1;startSize=30;horizontalStack=0;resizeParent=1;resizeParentMax=0;resizeLast=0;collapsible=1;marginBottom=0;whiteSpace=wrap;html=1;" parent="WIyWlLk6GJQsqaUBKTNV-1" vertex="1">
          <mxGeometry x="-160" y="80" width="140" height="60" as="geometry" />
        </mxCell>
        <mxCell id="io9zjwwCW2kKmOPxTwVO-19" value="&lt;div style=&quot;background-color:#2f2f2f;padding:0px 0px 0px 2px;&quot;&gt;&lt;div style=&quot;color: rgb(170, 170, 170); font-family: Consolas; font-size: 10pt;&quot;&gt;&lt;p style=&quot;background-color:#373737;margin:0;&quot;&gt;&lt;span style=&quot;color:#1290c3;&quot;&gt;String&lt;/span&gt;&lt;span style=&quot;color:#d9e8f7;&quot;&gt; &lt;/span&gt;&lt;span style=&quot;color:#66e1f8;&quot;&gt;username&lt;/span&gt;&lt;/p&gt;&lt;/div&gt;&lt;/div&gt;" style="text;strokeColor=none;fillColor=none;align=left;verticalAlign=middle;spacingLeft=4;spacingRight=4;overflow=hidden;points=[[0,0.5],[1,0.5]];portConstraint=eastwest;rotatable=0;whiteSpace=wrap;html=1;" parent="io9zjwwCW2kKmOPxTwVO-18" vertex="1">
          <mxGeometry y="30" width="140" height="30" as="geometry" />
        </mxCell>
        <mxCell id="io9zjwwCW2kKmOPxTwVO-23" value="User" style="swimlane;fontStyle=0;childLayout=stackLayout;horizontal=1;startSize=30;horizontalStack=0;resizeParent=1;resizeParentMax=0;resizeLast=0;collapsible=1;marginBottom=0;whiteSpace=wrap;html=1;" parent="WIyWlLk6GJQsqaUBKTNV-1" vertex="1">
          <mxGeometry x="320" y="-40" width="140" height="130" as="geometry">
            <mxRectangle x="320" y="-40" width="70" height="30" as="alternateBounds" />
          </mxGeometry>
        </mxCell>
        <mxCell id="io9zjwwCW2kKmOPxTwVO-24" value="&lt;div style=&quot;background-color:#2f2f2f;padding:0px 0px 0px 2px;&quot;&gt;&lt;div style=&quot;color: rgb(170, 170, 170); font-family: Consolas; font-size: 10pt;&quot;&gt;&lt;p style=&quot;background-color:#373737;margin:0;&quot;&gt;&lt;span style=&quot;color:#1290c3;&quot;&gt;Long id = null&lt;/span&gt;&lt;/p&gt;&lt;p style=&quot;background-color:#373737;margin:0;&quot;&gt;&lt;br&gt;&lt;/p&gt;&lt;/div&gt;&lt;/div&gt;" style="text;strokeColor=none;fillColor=none;align=left;verticalAlign=middle;spacingLeft=4;spacingRight=4;overflow=hidden;points=[[0,0.5],[1,0.5]];portConstraint=eastwest;rotatable=0;whiteSpace=wrap;html=1;" parent="io9zjwwCW2kKmOPxTwVO-23" vertex="1">
          <mxGeometry y="30" width="140" height="50" as="geometry" />
        </mxCell>
        <mxCell id="io9zjwwCW2kKmOPxTwVO-25" value="&#xa;&lt;span style=&quot;border-color: rgb(0, 0, 0); font-family: Consolas; font-size: 13.3333px; font-style: normal; font-variant-ligatures: normal; font-variant-caps: normal; font-weight: 400; letter-spacing: normal; orphans: 2; text-align: left; text-indent: 0px; text-transform: none; widows: 2; word-spacing: 0px; -webkit-text-stroke-width: 0px; text-decoration-thickness: initial; text-decoration-style: initial; text-decoration-color: initial; color: rgb(18, 144, 195);&quot;&gt;String&lt;/span&gt;&lt;span style=&quot;border-color: rgb(0, 0, 0); font-family: Consolas; font-size: 13.3333px; font-style: normal; font-variant-ligatures: normal; font-variant-caps: normal; font-weight: 400; letter-spacing: normal; orphans: 2; text-align: left; text-indent: 0px; text-transform: none; widows: 2; word-spacing: 0px; -webkit-text-stroke-width: 0px; text-decoration-thickness: initial; text-decoration-style: initial; text-decoration-color: initial; color: rgb(217, 232, 247);&quot;&gt;&lt;span&gt;&amp;nbsp;&lt;/span&gt;&lt;/span&gt;&lt;span style=&quot;border-color: rgb(0, 0, 0); font-family: Consolas; font-size: 13.3333px; font-style: normal; font-variant-ligatures: normal; font-variant-caps: normal; font-weight: 400; letter-spacing: normal; orphans: 2; text-align: left; text-indent: 0px; text-transform: none; widows: 2; word-spacing: 0px; -webkit-text-stroke-width: 0px; text-decoration-thickness: initial; text-decoration-style: initial; text-decoration-color: initial; color: rgb(102, 225, 248);&quot;&gt;username&lt;/span&gt;&#xa;&#xa;" style="text;strokeColor=none;fillColor=none;align=left;verticalAlign=middle;spacingLeft=4;spacingRight=4;overflow=hidden;points=[[0,0.5],[1,0.5]];portConstraint=eastwest;rotatable=0;whiteSpace=wrap;html=1;" parent="io9zjwwCW2kKmOPxTwVO-23" vertex="1">
          <mxGeometry y="80" width="140" height="50" as="geometry" />
        </mxCell>
        <mxCell id="io9zjwwCW2kKmOPxTwVO-27" style="edgeStyle=orthogonalEdgeStyle;rounded=0;orthogonalLoop=1;jettySize=auto;html=1;entryX=0;entryY=0.5;entryDx=0;entryDy=0;" parent="WIyWlLk6GJQsqaUBKTNV-1" source="io9zjwwCW2kKmOPxTwVO-13" target="io9zjwwCW2kKmOPxTwVO-8" edge="1">
          <mxGeometry relative="1" as="geometry" />
        </mxCell>
        <mxCell id="io9zjwwCW2kKmOPxTwVO-28" style="edgeStyle=orthogonalEdgeStyle;rounded=0;orthogonalLoop=1;jettySize=auto;html=1;entryX=0;entryY=0.5;entryDx=0;entryDy=0;" parent="WIyWlLk6GJQsqaUBKTNV-1" source="io9zjwwCW2kKmOPxTwVO-10" target="io9zjwwCW2kKmOPxTwVO-13" edge="1">
          <mxGeometry relative="1" as="geometry">
            <Array as="points">
              <mxPoint x="430" y="110" />
              <mxPoint x="430" y="110" />
            </Array>
          </mxGeometry>
        </mxCell>
        <mxCell id="io9zjwwCW2kKmOPxTwVO-33" style="edgeStyle=orthogonalEdgeStyle;rounded=0;orthogonalLoop=1;jettySize=auto;html=1;entryX=0;entryY=0.5;entryDx=0;entryDy=0;startArrow=classic;startFill=1;" parent="WIyWlLk6GJQsqaUBKTNV-1" source="io9zjwwCW2kKmOPxTwVO-11" target="io9zjwwCW2kKmOPxTwVO-14" edge="1">
          <mxGeometry relative="1" as="geometry" />
        </mxCell>
        <mxCell id="io9zjwwCW2kKmOPxTwVO-34" style="edgeStyle=orthogonalEdgeStyle;rounded=0;orthogonalLoop=1;jettySize=auto;html=1;entryX=0;entryY=0.5;entryDx=0;entryDy=0;endArrow=classic;endFill=1;startArrow=classic;startFill=1;" parent="WIyWlLk6GJQsqaUBKTNV-1" source="io9zjwwCW2kKmOPxTwVO-14" target="io9zjwwCW2kKmOPxTwVO-8" edge="1">
          <mxGeometry relative="1" as="geometry" />
        </mxCell>
        <mxCell id="io9zjwwCW2kKmOPxTwVO-35" value="username -&amp;gt;&lt;br&gt;id &amp;lt;-" style="text;html=1;strokeColor=none;fillColor=none;align=center;verticalAlign=middle;whiteSpace=wrap;rounded=0;" parent="WIyWlLk6GJQsqaUBKTNV-1" vertex="1">
          <mxGeometry x="690" y="160" width="90" height="30" as="geometry" />
        </mxCell>
        <mxCell id="io9zjwwCW2kKmOPxTwVO-36" value="user" style="text;html=1;strokeColor=none;fillColor=none;align=center;verticalAlign=middle;whiteSpace=wrap;rounded=0;" parent="WIyWlLk6GJQsqaUBKTNV-1" vertex="1">
          <mxGeometry x="690" y="65" width="60" height="30" as="geometry" />
        </mxCell>
        <mxCell id="7HJ0iA8Tx3J7Fw02GYnK-7" style="edgeStyle=orthogonalEdgeStyle;rounded=0;orthogonalLoop=1;jettySize=auto;html=1;entryX=0;entryY=0.5;entryDx=0;entryDy=0;" edge="1" parent="WIyWlLk6GJQsqaUBKTNV-1" source="7HJ0iA8Tx3J7Fw02GYnK-5" target="7HJ0iA8Tx3J7Fw02GYnK-1">
          <mxGeometry relative="1" as="geometry" />
        </mxCell>
        <mxCell id="7HJ0iA8Tx3J7Fw02GYnK-5" value="get /salon" style="swimlane;whiteSpace=wrap;html=1;" vertex="1" parent="WIyWlLk6GJQsqaUBKTNV-1">
          <mxGeometry x="-330" y="365" width="240" height="70" as="geometry">
            <mxRectangle x="-350" y="360" width="100" height="30" as="alternateBounds" />
          </mxGeometry>
        </mxCell>
        <mxCell id="7HJ0iA8Tx3J7Fw02GYnK-6" value="pour afficher la liste des salons côté front" style="text;html=1;strokeColor=none;fillColor=none;align=center;verticalAlign=middle;whiteSpace=wrap;rounded=0;" vertex="1" parent="7HJ0iA8Tx3J7Fw02GYnK-5">
          <mxGeometry x="10" y="40" width="200" height="30" as="geometry" />
        </mxCell>
        <mxCell id="7HJ0iA8Tx3J7Fw02GYnK-8" value="SalonService" style="swimlane;whiteSpace=wrap;html=1;" vertex="1" parent="WIyWlLk6GJQsqaUBKTNV-1">
          <mxGeometry x="501" y="340" width="219" height="350" as="geometry" />
        </mxCell>
        <mxCell id="7HJ0iA8Tx3J7Fw02GYnK-10" value="chercher tous les salons" style="rounded=1;whiteSpace=wrap;html=1;" vertex="1" parent="7HJ0iA8Tx3J7Fw02GYnK-8">
          <mxGeometry x="10" y="40" width="160" height="40" as="geometry" />
        </mxCell>
        <mxCell id="7HJ0iA8Tx3J7Fw02GYnK-0" value="chercher un salon" style="rounded=1;whiteSpace=wrap;html=1;" vertex="1" parent="7HJ0iA8Tx3J7Fw02GYnK-8">
          <mxGeometry x="41.5" y="255" width="110" height="25" as="geometry" />
        </mxCell>
        <mxCell id="7HJ0iA8Tx3J7Fw02GYnK-22" value="Creer nouveau salon" style="rounded=1;whiteSpace=wrap;html=1;" vertex="1" parent="7HJ0iA8Tx3J7Fw02GYnK-8">
          <mxGeometry x="25" y="90" width="130" height="30" as="geometry" />
        </mxCell>
        <mxCell id="7HJ0iA8Tx3J7Fw02GYnK-23" value="Inscrire utilisateur" style="rounded=1;whiteSpace=wrap;html=1;" vertex="1" parent="7HJ0iA8Tx3J7Fw02GYnK-8">
          <mxGeometry x="36.5" y="130" width="113.5" height="30" as="geometry" />
        </mxCell>
        <mxCell id="7HJ0iA8Tx3J7Fw02GYnK-11" style="edgeStyle=orthogonalEdgeStyle;rounded=0;orthogonalLoop=1;jettySize=auto;html=1;entryX=0;entryY=0.5;entryDx=0;entryDy=0;startArrow=classic;startFill=1;" edge="1" parent="WIyWlLk6GJQsqaUBKTNV-1" source="7HJ0iA8Tx3J7Fw02GYnK-1" target="7HJ0iA8Tx3J7Fw02GYnK-10">
          <mxGeometry relative="1" as="geometry" />
        </mxCell>
        <mxCell id="7HJ0iA8Tx3J7Fw02GYnK-12" value="Salon:&lt;br&gt;&lt;br&gt;Long Id&lt;br&gt;List&amp;lt;UserId&amp;gt;" style="shape=internalStorage;whiteSpace=wrap;html=1;backgroundOutline=1;verticalAlign=top;" vertex="1" parent="WIyWlLk6GJQsqaUBKTNV-1">
          <mxGeometry x="860" y="420" width="200" height="85" as="geometry" />
        </mxCell>
        <mxCell id="7HJ0iA8Tx3J7Fw02GYnK-13" style="edgeStyle=orthogonalEdgeStyle;rounded=0;orthogonalLoop=1;jettySize=auto;html=1;entryX=0;entryY=0.5;entryDx=0;entryDy=0;" edge="1" parent="WIyWlLk6GJQsqaUBKTNV-1" source="7HJ0iA8Tx3J7Fw02GYnK-10" target="7HJ0iA8Tx3J7Fw02GYnK-12">
          <mxGeometry relative="1" as="geometry" />
        </mxCell>
        <mxCell id="7HJ0iA8Tx3J7Fw02GYnK-14" value="List&amp;lt;Salon&amp;gt; &amp;lt;-&lt;br&gt;List&amp;lt;User&amp;gt; &amp;lt;-" style="text;html=1;strokeColor=none;fillColor=none;align=center;verticalAlign=middle;whiteSpace=wrap;rounded=0;" vertex="1" parent="WIyWlLk6GJQsqaUBKTNV-1">
          <mxGeometry x="340" y="360" width="110" height="30" as="geometry" />
        </mxCell>
        <mxCell id="7HJ0iA8Tx3J7Fw02GYnK-17" value="Post: InscriptionSalonDto" style="swimlane;fontStyle=0;childLayout=stackLayout;horizontal=1;startSize=30;horizontalStack=0;resizeParent=1;resizeParentMax=0;resizeLast=0;collapsible=1;marginBottom=0;whiteSpace=wrap;html=1;" vertex="1" parent="WIyWlLk6GJQsqaUBKTNV-1">
          <mxGeometry x="-300" y="596" width="140" height="90" as="geometry" />
        </mxCell>
        <mxCell id="7HJ0iA8Tx3J7Fw02GYnK-18" value="Long idSalon" style="text;strokeColor=none;fillColor=none;align=left;verticalAlign=middle;spacingLeft=4;spacingRight=4;overflow=hidden;points=[[0,0.5],[1,0.5]];portConstraint=eastwest;rotatable=0;whiteSpace=wrap;html=1;" vertex="1" parent="7HJ0iA8Tx3J7Fw02GYnK-17">
          <mxGeometry y="30" width="140" height="30" as="geometry" />
        </mxCell>
        <mxCell id="7HJ0iA8Tx3J7Fw02GYnK-19" value="Long idUtilisateur" style="text;strokeColor=none;fillColor=none;align=left;verticalAlign=middle;spacingLeft=4;spacingRight=4;overflow=hidden;points=[[0,0.5],[1,0.5]];portConstraint=eastwest;rotatable=0;whiteSpace=wrap;html=1;" vertex="1" parent="7HJ0iA8Tx3J7Fw02GYnK-17">
          <mxGeometry y="60" width="140" height="30" as="geometry" />
        </mxCell>
        <mxCell id="7HJ0iA8Tx3J7Fw02GYnK-21" style="edgeStyle=orthogonalEdgeStyle;rounded=0;orthogonalLoop=1;jettySize=auto;html=1;entryX=0;entryY=0.5;entryDx=0;entryDy=0;" edge="1" parent="WIyWlLk6GJQsqaUBKTNV-1" source="7HJ0iA8Tx3J7Fw02GYnK-18" target="io9zjwwCW2kKmOPxTwVO-7">
          <mxGeometry relative="1" as="geometry" />
        </mxCell>
        <mxCell id="7HJ0iA8Tx3J7Fw02GYnK-24" style="edgeStyle=orthogonalEdgeStyle;rounded=0;orthogonalLoop=1;jettySize=auto;html=1;exitX=1;exitY=0.5;exitDx=0;exitDy=0;entryX=0;entryY=0.5;entryDx=0;entryDy=0;" edge="1" parent="WIyWlLk6GJQsqaUBKTNV-1" source="io9zjwwCW2kKmOPxTwVO-6" target="7HJ0iA8Tx3J7Fw02GYnK-22">
          <mxGeometry relative="1" as="geometry" />
        </mxCell>
        <mxCell id="7HJ0iA8Tx3J7Fw02GYnK-25" value="Post:creerSalon" style="swimlane;fontStyle=0;childLayout=stackLayout;horizontal=1;startSize=30;horizontalStack=0;resizeParent=1;resizeParentMax=0;resizeLast=0;collapsible=1;marginBottom=0;whiteSpace=wrap;html=1;" vertex="1" parent="WIyWlLk6GJQsqaUBKTNV-1">
          <mxGeometry x="-290" y="450" width="140" height="60" as="geometry" />
        </mxCell>
        <mxCell id="7HJ0iA8Tx3J7Fw02GYnK-26" value="Long idUtilisateur" style="text;align=left;verticalAlign=middle;spacingLeft=4;spacingRight=4;overflow=hidden;points=[[0,0.5],[1,0.5]];portConstraint=eastwest;rotatable=0;whiteSpace=wrap;html=1;enumerate=0;" vertex="1" parent="7HJ0iA8Tx3J7Fw02GYnK-25">
          <mxGeometry y="30" width="140" height="30" as="geometry" />
        </mxCell>
        <mxCell id="7HJ0iA8Tx3J7Fw02GYnK-29" style="edgeStyle=orthogonalEdgeStyle;rounded=0;orthogonalLoop=1;jettySize=auto;html=1;entryX=0;entryY=0.5;entryDx=0;entryDy=0;fontFamily=Helvetica;fontSize=12;fontColor=default;startSize=30;" edge="1" parent="WIyWlLk6GJQsqaUBKTNV-1" source="7HJ0iA8Tx3J7Fw02GYnK-26" target="io9zjwwCW2kKmOPxTwVO-6">
          <mxGeometry relative="1" as="geometry" />
        </mxCell>
        <mxCell id="7HJ0iA8Tx3J7Fw02GYnK-30" style="edgeStyle=orthogonalEdgeStyle;rounded=0;orthogonalLoop=1;jettySize=auto;html=1;entryX=0;entryY=0.5;entryDx=0;entryDy=0;fontFamily=Helvetica;fontSize=12;fontColor=default;startSize=30;" edge="1" parent="WIyWlLk6GJQsqaUBKTNV-1" source="io9zjwwCW2kKmOPxTwVO-6" target="7HJ0iA8Tx3J7Fw02GYnK-23">
          <mxGeometry relative="1" as="geometry" />
        </mxCell>
        <mxCell id="7HJ0iA8Tx3J7Fw02GYnK-31" value="idSalon &amp;lt;-" style="text;html=1;strokeColor=none;fillColor=none;align=center;verticalAlign=middle;whiteSpace=wrap;rounded=0;fontSize=12;fontFamily=Helvetica;fontColor=default;" vertex="1" parent="WIyWlLk6GJQsqaUBKTNV-1">
          <mxGeometry x="400" y="410" width="60" height="30" as="geometry" />
        </mxCell>
        <mxCell id="7HJ0iA8Tx3J7Fw02GYnK-33" value="idSalon -&amp;gt;&lt;br&gt;idUtilisateur -&amp;gt;" style="text;html=1;strokeColor=none;fillColor=none;align=center;verticalAlign=middle;whiteSpace=wrap;rounded=0;fontSize=12;fontFamily=Helvetica;fontColor=default;" vertex="1" parent="WIyWlLk6GJQsqaUBKTNV-1">
          <mxGeometry x="370" y="490" width="90" height="30" as="geometry" />
        </mxCell>
        <mxCell id="7HJ0iA8Tx3J7Fw02GYnK-35" style="edgeStyle=orthogonalEdgeStyle;rounded=0;orthogonalLoop=1;jettySize=auto;html=1;entryX=0;entryY=0.5;entryDx=0;entryDy=0;fontFamily=Helvetica;fontSize=12;fontColor=default;startSize=30;" edge="1" parent="WIyWlLk6GJQsqaUBKTNV-1" source="7HJ0iA8Tx3J7Fw02GYnK-22" target="7HJ0iA8Tx3J7Fw02GYnK-12">
          <mxGeometry relative="1" as="geometry" />
        </mxCell>
        <mxCell id="7HJ0iA8Tx3J7Fw02GYnK-36" style="edgeStyle=orthogonalEdgeStyle;rounded=0;orthogonalLoop=1;jettySize=auto;html=1;entryX=0;entryY=0.5;entryDx=0;entryDy=0;fontFamily=Helvetica;fontSize=12;fontColor=default;startSize=30;" edge="1" parent="WIyWlLk6GJQsqaUBKTNV-1" source="7HJ0iA8Tx3J7Fw02GYnK-23" target="7HJ0iA8Tx3J7Fw02GYnK-12">
          <mxGeometry relative="1" as="geometry" />
        </mxCell>
        <mxCell id="7HJ0iA8Tx3J7Fw02GYnK-37" style="edgeStyle=orthogonalEdgeStyle;rounded=0;orthogonalLoop=1;jettySize=auto;html=1;entryX=0;entryY=0.5;entryDx=0;entryDy=0;fontFamily=Helvetica;fontSize=12;fontColor=default;startSize=30;" edge="1" parent="WIyWlLk6GJQsqaUBKTNV-1" source="io9zjwwCW2kKmOPxTwVO-7" target="7HJ0iA8Tx3J7Fw02GYnK-23">
          <mxGeometry relative="1" as="geometry" />
        </mxCell>
        <mxCell id="7HJ0iA8Tx3J7Fw02GYnK-60" style="edgeStyle=orthogonalEdgeStyle;rounded=0;orthogonalLoop=1;jettySize=auto;html=1;entryX=0;entryY=1;entryDx=0;entryDy=0;fontFamily=Helvetica;fontSize=12;fontColor=default;startSize=30;" edge="1" parent="WIyWlLk6GJQsqaUBKTNV-1" source="7HJ0iA8Tx3J7Fw02GYnK-38" target="7HJ0iA8Tx3J7Fw02GYnK-12">
          <mxGeometry relative="1" as="geometry">
            <Array as="points">
              <mxPoint x="800" y="638" />
              <mxPoint x="800" y="505" />
            </Array>
          </mxGeometry>
        </mxCell>
        <mxCell id="7HJ0iA8Tx3J7Fw02GYnK-38" value="supprimer salon" style="rounded=1;whiteSpace=wrap;html=1;" vertex="1" parent="WIyWlLk6GJQsqaUBKTNV-1">
          <mxGeometry x="543.5" y="626" width="110" height="25" as="geometry" />
        </mxCell>
        <mxCell id="7HJ0iA8Tx3J7Fw02GYnK-45" value="GameController" style="swimlane;whiteSpace=wrap;html=1;" vertex="1" parent="WIyWlLk6GJQsqaUBKTNV-1">
          <mxGeometry x="40" y="770" width="200" height="340" as="geometry" />
        </mxCell>
        <mxCell id="7HJ0iA8Tx3J7Fw02GYnK-48" value="creerGame" style="rounded=1;whiteSpace=wrap;html=1;" vertex="1" parent="7HJ0iA8Tx3J7Fw02GYnK-45">
          <mxGeometry x="10" y="45" width="130" height="30" as="geometry" />
        </mxCell>
        <mxCell id="7HJ0iA8Tx3J7Fw02GYnK-49" value="Post:&amp;nbsp; creerGameDto" style="swimlane;fontStyle=0;childLayout=stackLayout;horizontal=1;startSize=30;horizontalStack=0;resizeParent=1;resizeParentMax=0;resizeLast=0;collapsible=1;marginBottom=0;whiteSpace=wrap;html=1;" vertex="1" parent="WIyWlLk6GJQsqaUBKTNV-1">
          <mxGeometry x="-301" y="756" width="131" height="90" as="geometry" />
        </mxCell>
        <mxCell id="7HJ0iA8Tx3J7Fw02GYnK-50" value="Long idSalon" style="text;strokeColor=none;fillColor=none;align=left;verticalAlign=middle;spacingLeft=4;spacingRight=4;overflow=hidden;points=[[0,0.5],[1,0.5]];portConstraint=eastwest;rotatable=0;whiteSpace=wrap;html=1;" vertex="1" parent="7HJ0iA8Tx3J7Fw02GYnK-49">
          <mxGeometry y="30" width="131" height="30" as="geometry" />
        </mxCell>
        <mxCell id="7HJ0iA8Tx3J7Fw02GYnK-51" value="Long idUtilisateur" style="text;strokeColor=none;fillColor=none;align=left;verticalAlign=middle;spacingLeft=4;spacingRight=4;overflow=hidden;points=[[0,0.5],[1,0.5]];portConstraint=eastwest;rotatable=0;whiteSpace=wrap;html=1;" vertex="1" parent="7HJ0iA8Tx3J7Fw02GYnK-49">
          <mxGeometry y="60" width="131" height="30" as="geometry" />
        </mxCell>
        <mxCell id="7HJ0iA8Tx3J7Fw02GYnK-53" style="edgeStyle=orthogonalEdgeStyle;rounded=0;orthogonalLoop=1;jettySize=auto;html=1;entryX=0;entryY=0.5;entryDx=0;entryDy=0;fontFamily=Helvetica;fontSize=12;fontColor=default;startSize=30;" edge="1" parent="WIyWlLk6GJQsqaUBKTNV-1" source="7HJ0iA8Tx3J7Fw02GYnK-51" target="7HJ0iA8Tx3J7Fw02GYnK-48">
          <mxGeometry relative="1" as="geometry" />
        </mxCell>
        <mxCell id="7HJ0iA8Tx3J7Fw02GYnK-54" style="edgeStyle=orthogonalEdgeStyle;rounded=0;orthogonalLoop=1;jettySize=auto;html=1;entryX=0;entryY=0.5;entryDx=0;entryDy=0;fontFamily=Helvetica;fontSize=12;fontColor=default;startSize=30;" edge="1" parent="WIyWlLk6GJQsqaUBKTNV-1" source="7HJ0iA8Tx3J7Fw02GYnK-48" target="7HJ0iA8Tx3J7Fw02GYnK-38">
          <mxGeometry relative="1" as="geometry">
            <Array as="points">
              <mxPoint x="362" y="820" />
              <mxPoint x="362" y="638" />
            </Array>
          </mxGeometry>
        </mxCell>
        <mxCell id="7HJ0iA8Tx3J7Fw02GYnK-56" style="edgeStyle=orthogonalEdgeStyle;rounded=0;orthogonalLoop=1;jettySize=auto;html=1;entryX=0;entryY=0.5;entryDx=0;entryDy=0;fontFamily=Helvetica;fontSize=12;fontColor=default;startSize=30;startArrow=classic;startFill=1;" edge="1" parent="WIyWlLk6GJQsqaUBKTNV-1" source="7HJ0iA8Tx3J7Fw02GYnK-48" target="7HJ0iA8Tx3J7Fw02GYnK-0">
          <mxGeometry relative="1" as="geometry">
            <Array as="points">
              <mxPoint x="370" y="820" />
              <mxPoint x="370" y="608" />
            </Array>
          </mxGeometry>
        </mxCell>
        <mxCell id="7HJ0iA8Tx3J7Fw02GYnK-57" value="idSalon -&amp;gt;&lt;br&gt;List&amp;lt;idUserss&amp;gt; &amp;lt;-" style="text;html=1;strokeColor=none;fillColor=none;align=center;verticalAlign=middle;whiteSpace=wrap;rounded=0;fontSize=12;fontFamily=Helvetica;fontColor=default;" vertex="1" parent="WIyWlLk6GJQsqaUBKTNV-1">
          <mxGeometry x="390" y="563" width="120" height="44" as="geometry" />
        </mxCell>
        <mxCell id="7HJ0iA8Tx3J7Fw02GYnK-58" style="edgeStyle=orthogonalEdgeStyle;rounded=0;orthogonalLoop=1;jettySize=auto;html=1;entryX=0;entryY=1;entryDx=0;entryDy=0;fontFamily=Helvetica;fontSize=12;fontColor=default;startSize=30;" edge="1" parent="WIyWlLk6GJQsqaUBKTNV-1" source="7HJ0iA8Tx3J7Fw02GYnK-0" target="7HJ0iA8Tx3J7Fw02GYnK-12">
          <mxGeometry relative="1" as="geometry">
            <Array as="points">
              <mxPoint x="800" y="608" />
              <mxPoint x="800" y="505" />
            </Array>
          </mxGeometry>
        </mxCell>
        <mxCell id="7HJ0iA8Tx3J7Fw02GYnK-59" value="idSalon -&amp;gt;" style="text;html=1;strokeColor=none;fillColor=none;align=center;verticalAlign=middle;whiteSpace=wrap;rounded=0;fontSize=12;fontFamily=Helvetica;fontColor=default;" vertex="1" parent="WIyWlLk6GJQsqaUBKTNV-1">
          <mxGeometry x="400" y="650" width="60" height="30" as="geometry" />
        </mxCell>
        <mxCell id="7HJ0iA8Tx3J7Fw02GYnK-61" value="Game:&lt;br&gt;&lt;br&gt;Long Id&lt;br&gt;List&amp;lt;playerId&amp;gt;&lt;br&gt;lastUpdate: timestamp" style="shape=internalStorage;whiteSpace=wrap;html=1;backgroundOutline=1;verticalAlign=top;" vertex="1" parent="WIyWlLk6GJQsqaUBKTNV-1">
          <mxGeometry x="891" y="861.5" width="200" height="86" as="geometry" />
        </mxCell>
        <mxCell id="7HJ0iA8Tx3J7Fw02GYnK-62" value="Player:&lt;br&gt;&lt;br&gt;Long Id&lt;br&gt;Bool humain?&lt;br&gt;UserId(siHumain)&lt;br&gt;dernierTirage List&amp;lt;Int&amp;gt;&lt;br&gt;ordreTour Int&lt;br&gt;&lt;br&gt;" style="shape=internalStorage;whiteSpace=wrap;html=1;backgroundOutline=1;verticalAlign=top;" vertex="1" parent="WIyWlLk6GJQsqaUBKTNV-1">
          <mxGeometry x="891" y="700" width="211" height="153" as="geometry" />
        </mxCell>
        <mxCell id="7HJ0iA8Tx3J7Fw02GYnK-64" value="Si besoin on récupères les usernames avec une jointure" style="text;html=1;strokeColor=none;fillColor=none;align=center;verticalAlign=middle;whiteSpace=wrap;rounded=0;fontSize=12;fontFamily=Helvetica;fontColor=default;" vertex="1" parent="WIyWlLk6GJQsqaUBKTNV-1">
          <mxGeometry x="1130" y="760" width="160" height="40" as="geometry" />
        </mxCell>
        <mxCell id="7HJ0iA8Tx3J7Fw02GYnK-65" style="edgeStyle=orthogonalEdgeStyle;rounded=0;orthogonalLoop=1;jettySize=auto;html=1;entryX=0;entryY=0.5;entryDx=0;entryDy=0;fontFamily=Helvetica;fontSize=12;fontColor=default;startSize=30;" edge="1" parent="WIyWlLk6GJQsqaUBKTNV-1" source="7HJ0iA8Tx3J7Fw02GYnK-71" target="7HJ0iA8Tx3J7Fw02GYnK-61">
          <mxGeometry relative="1" as="geometry" />
        </mxCell>
        <mxCell id="7HJ0iA8Tx3J7Fw02GYnK-66" value="List&amp;lt;playerId&amp;gt; -&amp;gt;&lt;br&gt;lastUpdate -&amp;gt;&lt;br&gt;long IdGame &amp;lt;-" style="text;html=1;strokeColor=none;fillColor=none;align=center;verticalAlign=middle;whiteSpace=wrap;rounded=0;fontSize=12;fontFamily=Helvetica;fontColor=default;" vertex="1" parent="WIyWlLk6GJQsqaUBKTNV-1">
          <mxGeometry x="742" y="923" width="149" height="34" as="geometry" />
        </mxCell>
        <mxCell id="7HJ0iA8Tx3J7Fw02GYnK-68" value="idGame &amp;lt;-" style="text;html=1;strokeColor=none;fillColor=none;align=center;verticalAlign=middle;whiteSpace=wrap;rounded=0;fontSize=12;fontFamily=Helvetica;fontColor=default;" vertex="1" parent="WIyWlLk6GJQsqaUBKTNV-1">
          <mxGeometry x="-110" y="800" width="60" height="30" as="geometry" />
        </mxCell>
        <mxCell id="7HJ0iA8Tx3J7Fw02GYnK-69" value="GameService" style="swimlane;whiteSpace=wrap;html=1;fontFamily=Helvetica;fontSize=12;fontColor=default;fillColor=none;gradientColor=none;" vertex="1" parent="WIyWlLk6GJQsqaUBKTNV-1">
          <mxGeometry x="530" y="810" width="200" height="200" as="geometry" />
        </mxCell>
        <mxCell id="7HJ0iA8Tx3J7Fw02GYnK-70" value="creerPlayers" style="rounded=1;whiteSpace=wrap;html=1;fontFamily=Helvetica;fontSize=12;fontColor=default;fillColor=none;gradientColor=none;" vertex="1" parent="7HJ0iA8Tx3J7Fw02GYnK-69">
          <mxGeometry x="50" y="36" width="100" height="29" as="geometry" />
        </mxCell>
        <mxCell id="7HJ0iA8Tx3J7Fw02GYnK-71" value="creerGame" style="rounded=1;whiteSpace=wrap;html=1;fontFamily=Helvetica;fontSize=12;fontColor=default;fillColor=none;gradientColor=none;" vertex="1" parent="7HJ0iA8Tx3J7Fw02GYnK-69">
          <mxGeometry x="60" y="80" width="100" height="29" as="geometry" />
        </mxCell>
        <mxCell id="7HJ0iA8Tx3J7Fw02GYnK-72" value="" style="edgeStyle=orthogonalEdgeStyle;rounded=0;orthogonalLoop=1;jettySize=auto;html=1;entryX=0;entryY=0.5;entryDx=0;entryDy=0;fontFamily=Helvetica;fontSize=12;fontColor=default;startSize=30;" edge="1" parent="WIyWlLk6GJQsqaUBKTNV-1" source="7HJ0iA8Tx3J7Fw02GYnK-48" target="7HJ0iA8Tx3J7Fw02GYnK-71">
          <mxGeometry relative="1" as="geometry">
            <mxPoint x="180" y="830" as="sourcePoint" />
            <mxPoint x="870" y="774" as="targetPoint" />
          </mxGeometry>
        </mxCell>
        <mxCell id="7HJ0iA8Tx3J7Fw02GYnK-73" style="edgeStyle=orthogonalEdgeStyle;rounded=0;orthogonalLoop=1;jettySize=auto;html=1;entryX=0;entryY=0.5;entryDx=0;entryDy=0;fontFamily=Helvetica;fontSize=12;fontColor=default;startSize=30;" edge="1" parent="WIyWlLk6GJQsqaUBKTNV-1" source="7HJ0iA8Tx3J7Fw02GYnK-48" target="7HJ0iA8Tx3J7Fw02GYnK-70">
          <mxGeometry relative="1" as="geometry" />
        </mxCell>
        <mxCell id="7HJ0iA8Tx3J7Fw02GYnK-74" style="edgeStyle=orthogonalEdgeStyle;rounded=0;orthogonalLoop=1;jettySize=auto;html=1;entryX=0;entryY=0.75;entryDx=0;entryDy=0;fontFamily=Helvetica;fontSize=12;fontColor=default;startSize=30;" edge="1" parent="WIyWlLk6GJQsqaUBKTNV-1" source="7HJ0iA8Tx3J7Fw02GYnK-70" target="7HJ0iA8Tx3J7Fw02GYnK-62">
          <mxGeometry relative="1" as="geometry" />
        </mxCell>
        <mxCell id="7HJ0iA8Tx3J7Fw02GYnK-75" value="List &amp;lt;UserId&amp;gt; -&amp;gt;&lt;br&gt;List&amp;lt;playerid&amp;gt; &amp;lt;-" style="text;html=1;strokeColor=none;fillColor=none;align=center;verticalAlign=middle;whiteSpace=wrap;rounded=0;fontSize=12;fontFamily=Helvetica;fontColor=default;" vertex="1" parent="WIyWlLk6GJQsqaUBKTNV-1">
          <mxGeometry x="756.5" y="761.5" width="120" height="30" as="geometry" />
        </mxCell>
      </root>
    </mxGraphModel>
  </diagram>
</mxfile>
